<svg width="454" height="63" viewBox="0 0 454 63" fill="none" xmlns="http://www.w3.org/2000/svg">
<path d="M41.2959 46.28C41.2959 49.3733 40.6026 51.96 39.2159 54.04C37.8293 56.0667 35.9893 57.6667 33.6959 58.84C31.4559 60.0133 29.0026 60.84 26.3359 61.32C23.6693 61.8 21.0559 62.04 18.4959 62.04C16.5226 62.04 14.6293 61.7467 12.8159 61.16C11.0026 60.6267 9.1626 60.0133 7.29594 59.32C6.38927 59 5.4826 58.8133 4.57594 58.76C3.7226 58.6533 2.81594 58.6 1.85594 58.6C1.69594 57.32 1.53594 56.0667 1.37594 54.84C1.21594 53.56 1.02927 52.28 0.815938 51C0.709271 50.0933 0.575938 49.2133 0.415938 48.36C0.255938 47.5067 0.175938 46.6533 0.175938 45.8C0.175938 45.0533 0.309271 44.44 0.575938 43.96C0.895938 43.48 1.45594 43.24 2.25594 43.24C3.0026 43.24 3.5626 43.4 3.93594 43.72C4.3626 43.9867 4.6826 44.4667 4.89594 45.16C5.26927 46.12 5.5626 47.1067 5.77594 48.12C6.0426 49.1333 6.3626 50.1467 6.73594 51.16C7.6426 53.6667 9.10927 55.6667 11.1359 57.16C13.2159 58.6533 15.6426 59.4 18.4159 59.4C22.1493 59.4 25.0026 58.3333 26.9759 56.2C29.0026 54.0133 30.0159 51.08 30.0159 47.4C30.0159 45.2667 29.5626 43.5067 28.6559 42.12C27.7493 40.68 26.5759 39.4533 25.1359 38.44C23.6959 37.4267 22.1493 36.4667 20.4959 35.56C18.9493 34.7067 17.3759 33.9067 15.7759 33.16C14.1759 32.4133 12.6026 31.64 11.0559 30.84C9.34927 29.9333 7.66927 28.8133 6.01594 27.48C4.41594 26.0933 3.0826 24.52 2.01594 22.76C1.0026 20.9467 0.495938 19 0.495938 16.92C0.495938 13.4 1.4026 10.4933 3.21594 8.2C5.0826 5.90667 7.45594 4.2 10.3359 3.08C13.2693 1.96 16.3093 1.39999 19.4559 1.39999C21.4826 1.39999 23.4293 1.69333 25.2959 2.28C27.2159 2.81333 29.0826 3.45333 30.8959 4.2C31.4826 4.41333 32.0159 4.57333 32.4959 4.68C33.0293 4.78666 33.5893 4.84 34.1759 4.84C34.6026 4.84 35.0026 4.84 35.3759 4.84C35.7493 4.78667 36.1226 4.73333 36.4959 4.68C36.6559 6.38666 36.8426 8.09333 37.0559 9.8C37.2693 11.5067 37.4826 13.2133 37.6959 14.92C37.7493 15.1867 37.7759 15.48 37.7759 15.8C37.8293 16.0667 37.8559 16.3333 37.8559 16.6C37.8559 17.3467 37.6959 18.04 37.3759 18.68C37.0559 19.2667 36.4426 19.56 35.5359 19.56C34.8426 19.56 34.3359 19.4 34.0159 19.08C33.6959 18.76 33.4026 18.3067 33.1359 17.72C32.4959 16.0667 31.8826 14.44 31.2959 12.84C30.7093 11.24 29.8559 9.74666 28.7359 8.36C27.5626 6.86666 26.0959 5.77333 24.3359 5.08C22.5759 4.33333 20.7626 3.96 18.8959 3.96C17.0826 3.96 15.5626 4.46666 14.3359 5.48C13.1093 6.44 12.2026 7.69333 11.6159 9.24C11.0293 10.7867 10.7359 12.3867 10.7359 14.04C10.7359 16.6 11.4026 18.6 12.7359 20.04C14.1226 21.4267 15.8293 22.7067 17.8559 23.88C18.9759 24.4667 20.0959 25.0533 21.2159 25.64C22.3893 26.1733 23.5359 26.7067 24.6559 27.24C27.3226 28.4667 29.9093 29.96 32.4159 31.72C34.9759 33.4267 37.0826 35.48 38.7359 37.88C40.4426 40.2267 41.2959 43.0267 41.2959 46.28ZM104.476 47.56C104.476 47.8267 104.343 48.2 104.076 48.68C103.809 49.16 103.623 49.5333 103.516 49.8C102.823 51.0267 101.756 52.3067 100.316 53.64C98.8759 54.9733 97.5426 56.0667 96.3159 56.92C93.8093 58.68 91.1693 59.8267 88.3959 60.36C85.6226 60.8933 82.7426 61.16 79.7559 61.16C73.9426 61.16 68.9826 59.96 64.8759 57.56C60.7693 55.1067 57.6226 51.72 55.4359 47.4C53.3026 43.0267 52.2359 37.9867 52.2359 32.28C52.2359 26.6267 53.2759 21.5333 55.3559 17C57.4359 12.4667 60.5026 8.86666 64.5559 6.2C68.6626 3.48 73.6759 2.12 79.5959 2.12C82.2626 2.12 84.5293 2.44 86.3959 3.08C88.2626 3.72 90.3693 4.46666 92.7159 5.32C93.8359 5.69333 94.9559 5.98666 96.0759 6.2C97.1959 6.36 98.3426 6.49333 99.5159 6.6C99.5693 7.77333 99.6493 8.97333 99.7559 10.2C99.8626 11.3733 99.9959 12.5733 100.156 13.8C100.263 14.8133 100.449 15.8533 100.716 16.92C100.983 17.9867 101.116 19.0533 101.116 20.12C101.116 21.1333 100.743 21.88 99.9959 22.36C99.3026 22.84 98.5026 23.08 97.5959 23.08C96.1026 23.08 95.0626 22.4667 94.4759 21.24C94.3159 20.8133 94.2093 20.36 94.1559 19.88C94.1026 19.3467 94.0226 18.8933 93.9159 18.52C93.5426 16.8133 92.8759 14.9733 91.9159 13C91.0093 10.9733 89.9159 9.37333 88.6359 8.2C87.6226 7.29333 86.2359 6.49333 84.4759 5.8C82.7159 5.05333 81.1426 4.68 79.7559 4.68C78.4226 4.68 77.1693 4.97333 75.9959 5.56C74.8759 6.14666 73.7826 6.86666 72.7159 7.72C70.4226 9.64 68.6093 11.9333 67.2759 14.6C65.9426 17.2667 65.0093 20.12 64.4759 23.16C63.9426 26.1467 63.6759 29.08 63.6759 31.96C63.6759 33.88 63.7826 35.8 63.9959 37.72C64.2626 39.5867 64.6626 41.4533 65.1959 43.32C65.9426 45.8267 67.0093 48.2 68.3959 50.44C69.8359 52.6267 71.5959 54.4133 73.6759 55.8C75.8093 57.1333 78.2626 57.8 81.0359 57.8C84.9826 57.8 88.5559 56.8133 91.7559 54.84C95.0093 52.8667 97.7026 50.28 99.8359 47.08C100.156 46.5467 100.476 46.0933 100.796 45.72C101.169 45.2933 101.703 45.08 102.396 45.08C103.089 45.08 103.596 45.3467 103.916 45.88C104.289 46.4133 104.476 46.9733 104.476 47.56ZM146.765 17C146.765 13.0533 145.885 10.0133 144.125 7.88C142.418 5.74666 139.511 4.68 135.405 4.68H133.965C133.538 4.68 133.085 4.68 132.605 4.68C132.125 4.68 131.671 4.73333 131.245 4.84C130.711 5 130.365 5.24 130.205 5.56C130.045 5.88 129.965 6.33333 129.965 6.92C129.965 10.0133 129.938 13.1067 129.885 16.2C129.885 19.24 129.885 22.3333 129.885 25.48V28.76C130.258 28.8133 130.631 28.8667 131.005 28.92C131.378 28.92 131.751 28.92 132.125 28.92C134.898 28.92 137.378 28.6 139.565 27.96C141.805 27.2667 143.565 26.0667 144.845 24.36C146.125 22.6 146.765 20.1467 146.765 17ZM167.085 59.88C167.085 60.36 166.631 60.7333 165.725 61C164.871 61.2133 163.831 61.3467 162.605 61.4C161.431 61.5067 160.311 61.56 159.245 61.56C158.178 61.6133 157.458 61.64 157.085 61.64C155.058 61.64 153.218 61.4267 151.565 61C149.965 60.5733 148.605 59.3733 147.485 57.4C145.031 53.1333 142.631 48.8133 140.285 44.44C137.938 40.0133 135.591 35.6133 133.245 31.24L129.885 31.16C129.885 35.3733 129.885 39.6133 129.885 43.88C129.938 48.0933 129.965 52.3333 129.965 56.6C129.965 57.08 130.098 57.56 130.365 58.04C130.631 58.4667 131.031 58.68 131.565 58.68C132.205 58.68 132.845 58.6533 133.485 58.6C134.125 58.5467 134.765 58.52 135.405 58.52C135.671 58.52 135.911 58.7067 136.125 59.08C136.391 59.4 136.525 59.6933 136.525 59.96C136.525 60.3333 136.418 60.6533 136.205 60.92C136.045 61.1867 135.778 61.32 135.405 61.32C134.925 61.32 134.471 61.2933 134.045 61.24C133.618 61.1867 133.191 61.16 132.765 61.16C131.805 61.0533 130.845 61 129.885 61C128.925 61 127.965 61 127.005 61C124.711 61 122.391 61.0533 120.045 61.16C117.751 61.2667 115.431 61.32 113.085 61.32C112.178 61.32 111.725 60.84 111.725 59.88C111.725 59.5067 111.885 59.2133 112.205 59C112.525 58.7333 112.871 58.6 113.245 58.6C113.778 58.6 114.311 58.6267 114.845 58.68C115.378 58.7333 115.911 58.76 116.445 58.76C117.191 58.76 117.831 58.6267 118.365 58.36C118.898 58.0933 119.165 57.5333 119.165 56.68V7.24C119.165 6.44 119.005 5.90666 118.685 5.64C118.365 5.32 117.831 5.16 117.085 5.16C116.551 5.16 116.018 5.18667 115.485 5.24C114.951 5.29333 114.418 5.32 113.885 5.32C113.511 5.32 113.111 5.18666 112.685 4.92C112.311 4.65333 112.125 4.30666 112.125 3.88C112.125 2.86666 112.711 2.36 113.885 2.36C114.418 2.36 114.951 2.38666 115.485 2.44C116.018 2.44 116.551 2.46666 117.085 2.52C118.151 2.57333 119.245 2.62666 120.365 2.68C121.485 2.68 122.578 2.68 123.645 2.68C126.205 2.68 128.738 2.6 131.245 2.44C133.805 2.22666 136.338 2.12 138.845 2.12C141.031 2.12 143.271 2.33333 145.565 2.76C147.858 3.13333 149.991 3.82667 151.965 4.84C153.991 5.85333 155.618 7.24 156.845 9C158.071 10.7067 158.685 12.8933 158.685 15.56C158.685 18.8133 158.018 21.4267 156.685 23.4C155.405 25.3733 153.618 26.8933 151.325 27.96C149.085 29.0267 146.525 29.8533 143.645 30.44C145.991 34.7067 148.525 38.8933 151.245 43C153.965 47.1067 156.711 51.16 159.485 55.16C160.231 56.1733 161.191 57.08 162.365 57.88C163.538 58.6267 164.738 59 165.965 59C166.338 59 166.605 59.0533 166.765 59.16C166.978 59.2133 167.085 59.4533 167.085 59.88ZM207.407 37.24C205.914 32.7067 204.367 28.2 202.767 23.72C201.221 19.24 199.727 14.7333 198.287 10.2C196.741 14.7333 195.194 19.24 193.647 23.72C192.154 28.2 190.634 32.7067 189.087 37.24H207.407ZM231.407 60.2C231.407 61 230.901 61.4 229.887 61.4C229.567 61.4 229.247 61.4 228.927 61.4C228.607 61.4 228.261 61.3733 227.887 61.32C226.554 61.2133 225.167 61.16 223.727 61.16C222.341 61.16 220.954 61.16 219.567 61.16C217.807 61.16 216.047 61.16 214.287 61.16C212.527 61.16 210.741 61.2133 208.927 61.32C208.714 61.3733 208.501 61.4 208.287 61.4C208.074 61.4 207.861 61.4 207.647 61.4C206.901 61.4 206.527 61.0267 206.527 60.28C206.527 59.64 206.741 59.2667 207.167 59.16C207.647 59 208.181 58.9467 208.767 59C209.354 59.0533 209.834 59.08 210.207 59.08C211.167 59.08 211.861 58.8933 212.287 58.52C212.767 58.0933 213.007 57.3733 213.007 56.36C213.007 55.7733 212.821 54.76 212.447 53.32C212.074 51.8267 211.621 50.2 211.087 48.44C210.554 46.68 210.021 45.0533 209.487 43.56C209.007 42.0133 208.661 40.92 208.447 40.28H188.047C187.941 40.6 187.701 41.32 187.327 42.44C186.954 43.56 186.501 44.8667 185.967 46.36C185.487 47.8533 185.007 49.32 184.527 50.76C184.047 52.2 183.647 53.4533 183.327 54.52C183.007 55.5333 182.847 56.1467 182.847 56.36C182.847 57.3733 183.114 58.0667 183.647 58.44C184.181 58.8133 184.847 59.0267 185.647 59.08C186.447 59.08 187.221 59.08 187.967 59.08C188.234 59.08 188.447 59.2667 188.607 59.64C188.767 59.96 188.847 60.2533 188.847 60.52C188.847 60.84 188.714 61.08 188.447 61.24C188.234 61.4 187.994 61.48 187.727 61.48C185.967 61.48 184.207 61.4267 182.447 61.32C180.741 61.2667 179.034 61.24 177.327 61.24C176.474 61.24 175.621 61.2667 174.767 61.32C173.914 61.3733 173.034 61.4 172.127 61.4C171.861 61.4 171.594 61.2933 171.327 61.08C171.061 60.8667 170.927 60.6267 170.927 60.36C170.927 59.7733 171.141 59.4 171.567 59.24C171.994 59.08 172.474 59.0267 173.007 59.08C173.594 59.08 174.074 59.08 174.447 59.08C175.141 59.08 175.701 58.8133 176.127 58.28C176.607 57.6933 176.954 57.1333 177.167 56.6C180.314 48.7067 183.301 40.7867 186.127 32.84C188.954 24.84 191.701 16.8133 194.367 8.76C194.581 8.17333 194.847 7.34666 195.167 6.28C195.487 5.21333 195.647 4.41333 195.647 3.88C195.647 3.56 195.567 3.29333 195.407 3.08C195.301 2.81333 195.247 2.57333 195.247 2.36C195.247 2.14666 195.514 1.98666 196.047 1.88C196.581 1.77333 197.141 1.69333 197.727 1.64C198.314 1.58666 198.687 1.56 198.847 1.56C199.967 1.4 201.061 1.24 202.127 1.08C203.247 0.919998 204.367 0.786665 205.487 0.679999L225.087 55.96C225.514 57.24 226.074 58.0667 226.767 58.44C227.514 58.76 228.501 58.92 229.727 58.92C230.207 58.92 230.607 59 230.927 59.16C231.247 59.2667 231.407 59.6133 231.407 60.2ZM273.52 17.08C273.52 14.84 273.147 12.7867 272.4 10.92C271.654 9.05333 270.48 7.58666 268.88 6.52C267.334 5.4 265.36 4.84 262.96 4.84C262.427 4.84 261.894 4.84 261.36 4.84C260.827 4.78667 260.294 4.76 259.76 4.76C258.427 4.76 257.574 4.89333 257.2 5.16C256.827 5.37333 256.64 6.22667 256.64 7.72C256.64 11.3467 256.64 15 256.64 18.68C256.64 22.36 256.667 26.0133 256.72 29.64C257.52 30.3333 258.454 30.7867 259.52 31C260.587 31.16 261.627 31.24 262.64 31.24C265.414 31.24 267.574 30.5733 269.12 29.24C270.72 27.8533 271.84 26.0667 272.48 23.88C273.174 21.6933 273.52 19.4267 273.52 17.08ZM285.04 16.84C285.04 20.36 284.427 23.24 283.2 25.48C281.974 27.6667 280.294 29.3733 278.16 30.6C276.08 31.8267 273.68 32.68 270.96 33.16C268.294 33.5867 265.467 33.8 262.48 33.8C261.52 33.8 260.56 33.7467 259.6 33.64C258.64 33.5333 257.68 33.4267 256.72 33.32C256.72 37.2133 256.72 41.1067 256.72 45C256.72 48.84 256.72 52.7067 256.72 56.6C256.72 57.0267 256.8 57.48 256.96 57.96C257.174 58.44 257.547 58.68 258.08 58.68C258.774 58.68 259.44 58.6533 260.08 58.6C260.774 58.5467 261.467 58.52 262.16 58.52C262.534 58.52 262.827 58.7333 263.04 59.16C263.307 59.5867 263.44 59.9333 263.44 60.2C263.44 60.5733 263.307 60.8667 263.04 61.08C262.774 61.2933 262.48 61.4 262.16 61.4C261.467 61.4 260.774 61.3733 260.08 61.32C259.387 61.2667 258.667 61.2133 257.92 61.16C256.854 61.0533 255.76 61 254.64 61C253.52 61 252.427 61 251.36 61C248.8 61 246.267 61.08 243.76 61.24C243.174 61.2933 242.587 61.32 242 61.32C241.467 61.3733 240.907 61.4 240.32 61.4C239.787 61.4 239.44 61.24 239.28 60.92C239.12 60.5467 239.04 60.1733 239.04 59.8C239.04 59.3733 239.2 59.08 239.52 58.92C239.84 58.7067 240.187 58.6 240.56 58.6C241.04 58.6 241.52 58.6267 242 58.68C242.48 58.7333 242.987 58.76 243.52 58.76C243.627 58.76 243.76 58.76 243.92 58.76C244.08 58.76 244.214 58.76 244.32 58.76C245.067 58.7067 245.494 58.28 245.6 57.48C245.76 56.68 245.84 56.0133 245.84 55.48V8.36C245.84 7.93333 245.787 7.32 245.68 6.52C245.574 5.66666 245.2 5.21333 244.56 5.16C244.4 5.16 244.24 5.16 244.08 5.16C243.974 5.16 243.867 5.16 243.76 5.16C243.227 5.16 242.694 5.18667 242.16 5.24C241.627 5.29333 241.094 5.32 240.56 5.32C240.187 5.32 239.814 5.16 239.44 4.84C239.12 4.52 238.96 4.17333 238.96 3.8C238.96 3.42666 239.12 3.08 239.44 2.76C239.814 2.44 240.187 2.28 240.56 2.28C241.147 2.28 241.734 2.30666 242.32 2.36C242.96 2.41333 243.574 2.46666 244.16 2.52C245.387 2.57333 246.587 2.62666 247.76 2.68C248.987 2.68 250.187 2.68 251.36 2.68C253.814 2.68 256.24 2.62666 258.64 2.52C261.094 2.36 263.547 2.28 266 2.28C268.347 2.28 270.64 2.54666 272.88 3.08C275.174 3.56 277.227 4.36 279.04 5.48C280.854 6.6 282.294 8.09333 283.36 9.96C284.48 11.8267 285.04 14.12 285.04 16.84ZM327.442 17.08C327.442 14.84 327.069 12.7867 326.322 10.92C325.576 9.05333 324.402 7.58666 322.802 6.52C321.256 5.4 319.282 4.84 316.882 4.84C316.349 4.84 315.816 4.84 315.282 4.84C314.749 4.78667 314.216 4.76 313.682 4.76C312.349 4.76 311.496 4.89333 311.122 5.16C310.749 5.37333 310.562 6.22667 310.562 7.72C310.562 11.3467 310.562 15 310.562 18.68C310.562 22.36 310.589 26.0133 310.642 29.64C311.442 30.3333 312.376 30.7867 313.442 31C314.509 31.16 315.549 31.24 316.562 31.24C319.336 31.24 321.496 30.5733 323.042 29.24C324.642 27.8533 325.762 26.0667 326.402 23.88C327.096 21.6933 327.442 19.4267 327.442 17.08ZM338.962 16.84C338.962 20.36 338.349 23.24 337.122 25.48C335.896 27.6667 334.216 29.3733 332.082 30.6C330.002 31.8267 327.602 32.68 324.882 33.16C322.216 33.5867 319.389 33.8 316.402 33.8C315.442 33.8 314.482 33.7467 313.522 33.64C312.562 33.5333 311.602 33.4267 310.642 33.32C310.642 37.2133 310.642 41.1067 310.642 45C310.642 48.84 310.642 52.7067 310.642 56.6C310.642 57.0267 310.722 57.48 310.882 57.96C311.096 58.44 311.469 58.68 312.002 58.68C312.696 58.68 313.362 58.6533 314.002 58.6C314.696 58.5467 315.389 58.52 316.082 58.52C316.456 58.52 316.749 58.7333 316.962 59.16C317.229 59.5867 317.362 59.9333 317.362 60.2C317.362 60.5733 317.229 60.8667 316.962 61.08C316.696 61.2933 316.402 61.4 316.082 61.4C315.389 61.4 314.696 61.3733 314.002 61.32C313.309 61.2667 312.589 61.2133 311.842 61.16C310.776 61.0533 309.682 61 308.562 61C307.442 61 306.349 61 305.282 61C302.722 61 300.189 61.08 297.682 61.24C297.096 61.2933 296.509 61.32 295.922 61.32C295.389 61.3733 294.829 61.4 294.242 61.4C293.709 61.4 293.362 61.24 293.202 60.92C293.042 60.5467 292.962 60.1733 292.962 59.8C292.962 59.3733 293.122 59.08 293.442 58.92C293.762 58.7067 294.109 58.6 294.482 58.6C294.962 58.6 295.442 58.6267 295.922 58.68C296.402 58.7333 296.909 58.76 297.442 58.76C297.549 58.76 297.682 58.76 297.842 58.76C298.002 58.76 298.136 58.76 298.242 58.76C298.989 58.7067 299.416 58.28 299.522 57.48C299.682 56.68 299.762 56.0133 299.762 55.48V8.36C299.762 7.93333 299.709 7.32 299.602 6.52C299.496 5.66666 299.122 5.21333 298.482 5.16C298.322 5.16 298.162 5.16 298.002 5.16C297.896 5.16 297.789 5.16 297.682 5.16C297.149 5.16 296.616 5.18667 296.082 5.24C295.549 5.29333 295.016 5.32 294.482 5.32C294.109 5.32 293.736 5.16 293.362 4.84C293.042 4.52 292.882 4.17333 292.882 3.8C292.882 3.42666 293.042 3.08 293.362 2.76C293.736 2.44 294.109 2.28 294.482 2.28C295.069 2.28 295.656 2.30666 296.242 2.36C296.882 2.41333 297.496 2.46666 298.082 2.52C299.309 2.57333 300.509 2.62666 301.682 2.68C302.909 2.68 304.109 2.68 305.282 2.68C307.736 2.68 310.162 2.62666 312.562 2.52C315.016 2.36 317.469 2.28 319.922 2.28C322.269 2.28 324.562 2.54666 326.802 3.08C329.096 3.56 331.149 4.36 332.962 5.48C334.776 6.6 336.216 8.09333 337.282 9.96C338.402 11.8267 338.962 14.12 338.962 16.84ZM396.404 42.6C396.404 43.4533 396.351 44.3067 396.244 45.16C396.137 46.0133 396.031 46.8933 395.924 47.8C395.711 49.6667 395.471 51.5333 395.204 53.4C394.937 55.2667 394.724 57.1333 394.564 59C394.564 59.5333 394.457 59.9867 394.244 60.36C393.977 60.7333 393.577 60.9467 393.044 61C392.511 61.1067 392.031 61.16 391.604 61.16C390.964 61.16 390.324 61.1333 389.684 61.08C389.044 61.08 388.377 61.08 387.684 61.08C384.324 61.0267 380.964 61 377.604 61C374.244 61 370.884 61 367.524 61H358.404C357.231 61 356.057 61 354.884 61C353.764 61 352.617 61.0267 351.444 61.08C350.857 61.1333 350.271 61.16 349.684 61.16C349.097 61.2133 348.511 61.24 347.924 61.24C347.444 61.24 347.017 61.1067 346.644 60.84C346.324 60.5733 346.164 60.2 346.164 59.72C346.164 59.1867 346.324 58.7867 346.644 58.52C347.017 58.2533 347.417 58.12 347.844 58.12C348.271 58.12 348.697 58.1467 349.124 58.2C349.604 58.2533 350.057 58.28 350.484 58.28C351.337 58.28 352.004 58.1733 352.484 57.96C352.964 57.6933 353.204 57.08 353.204 56.12C353.204 47.8533 353.204 39.5867 353.204 31.32C353.204 23 353.177 14.7333 353.124 6.52C353.124 5.88 352.991 5.48 352.724 5.32C352.511 5.10666 352.111 5 351.524 5C350.937 5 350.324 5.02666 349.684 5.08C349.097 5.13333 348.484 5.16 347.844 5.16C347.471 5.16 347.124 5.02667 346.804 4.76C346.484 4.49333 346.324 4.14667 346.324 3.72C346.324 2.70667 346.857 2.2 347.924 2.2C348.511 2.2 349.124 2.22667 349.764 2.28C350.404 2.33333 351.044 2.38666 351.684 2.44C352.964 2.49333 354.217 2.54667 355.444 2.6C356.724 2.6 358.004 2.6 359.284 2.6C360.351 2.6 361.391 2.6 362.404 2.6C363.471 2.6 364.511 2.57333 365.524 2.52C366.271 2.46666 366.991 2.41333 367.684 2.36C368.377 2.25333 369.071 2.2 369.764 2.2C370.617 2.2 371.044 2.65333 371.044 3.56C371.044 3.93333 370.937 4.30666 370.724 4.68C370.511 5 370.191 5.16 369.764 5.16C369.071 5.16 368.377 5.13333 367.684 5.08C367.044 5.02666 366.351 5 365.604 5C365.017 5 364.644 5.16 364.484 5.48C364.377 5.74667 364.324 6.14667 364.324 6.68C364.324 8.65333 364.297 10.6 364.244 12.52C364.244 14.44 364.244 16.3867 364.244 18.36C364.244 24.5467 364.244 30.76 364.244 37C364.297 43.24 364.324 49.4533 364.324 55.64C364.324 56.1733 364.457 56.68 364.724 57.16C364.991 57.64 365.391 57.96 365.924 58.12C366.617 58.28 367.337 58.36 368.084 58.36C368.831 58.36 369.551 58.36 370.244 58.36C374.244 58.36 377.711 57.96 380.644 57.16C383.577 56.36 386.057 54.8933 388.084 52.76C390.164 50.5733 391.871 47.4267 393.204 43.32C393.364 42.84 393.577 42.4133 393.844 42.04C394.111 41.6133 394.511 41.4 395.044 41.4C395.364 41.4 395.657 41.5067 395.924 41.72C396.244 41.9333 396.404 42.2267 396.404 42.6ZM453.598 47.24C453.598 48.0933 453.491 48.9733 453.278 49.88C453.118 50.7333 452.984 51.6133 452.878 52.52C452.771 53.5333 452.638 54.5733 452.478 55.64C452.371 56.7067 452.264 57.7733 452.158 58.84C451.998 59.6933 451.758 60.28 451.438 60.6C451.118 60.8667 450.504 61 449.598 61C444.158 61 438.718 60.9733 433.278 60.92C427.838 60.8133 422.398 60.76 416.958 60.76C415.091 60.76 413.224 60.84 411.358 61C409.491 61.2133 407.624 61.32 405.758 61.32C404.851 61.32 404.398 60.8667 404.398 59.96C404.398 59.0533 404.798 58.6 405.598 58.6C406.398 58.5467 407.251 58.4667 408.158 58.36C409.224 58.2533 410.078 57.8533 410.718 57.16C411.411 56.4133 411.758 54.92 411.758 52.68V9.56C411.758 8.70666 411.598 7.88 411.278 7.08C411.011 6.28 410.344 5.88 409.278 5.88C408.638 5.88 407.998 5.90667 407.358 5.96C406.718 5.96 406.078 5.96 405.438 5.96C404.104 5.96 403.438 5.32 403.438 4.04C403.438 3.4 403.651 3 404.078 2.84C404.504 2.62666 404.984 2.52 405.518 2.52C407.064 2.52 408.584 2.57333 410.078 2.68C411.571 2.73333 413.064 2.76 414.558 2.76C419.571 2.76 424.584 2.73333 429.598 2.68C434.611 2.57333 439.624 2.52 444.638 2.52C445.598 2.52 446.558 2.49333 447.518 2.44C448.478 2.33333 449.438 2.22666 450.398 2.12C450.504 2.97333 450.611 3.82666 450.718 4.68C450.878 5.53333 451.011 6.38666 451.118 7.24C451.278 8.25333 451.491 9.32 451.758 10.44C452.078 11.56 452.238 12.6533 452.238 13.72C452.238 14.36 451.971 14.8933 451.438 15.32C450.904 15.6933 450.344 15.88 449.758 15.88C448.478 15.88 447.624 15.32 447.198 14.2C446.398 11.6933 445.198 9.61333 443.598 7.96C442.051 6.25333 439.864 5.4 437.038 5.4H422.638V28.92C424.664 28.92 426.638 28.8933 428.558 28.84C430.531 28.7867 432.504 28.68 434.478 28.52C436.451 28.36 438.344 28.04 440.158 27.56C440.904 27.4 441.678 27.1867 442.478 26.92C443.331 26.6533 444.131 26.52 444.878 26.52C445.518 26.52 445.838 26.8133 445.838 27.4C445.838 27.7733 445.731 28.3333 445.518 29.08C445.358 29.8267 445.224 30.3867 445.118 30.76C444.851 31.4533 444.584 31.88 444.318 32.04C444.051 32.1467 443.571 32.2 442.878 32.2C441.598 32.2 440.344 32.12 439.118 31.96C437.091 31.7467 435.038 31.6133 432.958 31.56C430.878 31.4533 428.798 31.4 426.718 31.4C425.544 31.4 424.558 31.72 423.758 32.36C423.011 32.9467 422.638 33.88 422.638 35.16V54.84C422.638 56.12 422.798 57.0267 423.118 57.56C423.491 58.0933 424.344 58.36 425.678 58.36C427.118 58.36 428.718 58.36 430.478 58.36C432.238 58.36 434.024 58.28 435.838 58.12C437.704 57.96 439.438 57.6133 441.038 57.08C442.638 56.5467 443.971 55.7467 445.038 54.68C445.944 53.7733 446.824 52.5733 447.678 51.08C448.531 49.5867 449.224 48.2533 449.758 47.08C450.024 46.44 450.291 46.0133 450.558 45.8C450.824 45.5333 451.304 45.4 451.998 45.4C452.638 45.4 453.064 45.56 453.278 45.88C453.491 46.2 453.598 46.6533 453.598 47.24Z" fill="black"/>
</svg>
